<?xml version="1.0" standalone="no"?>
<!DOCTYPE svg PUBLIC "-//W3C//DTD SVG 20010904//EN"
 "http://www.w3.org/TR/2001/REC-SVG-20010904/DTD/svg10.dtd">
<svg version="1.0" xmlns="http://www.w3.org/2000/svg"
 width="400.000000pt" height="400.000000pt" viewBox="0 0 400.000000 400.000000"
 preserveAspectRatio="xMidYMid meet">
<metadata>
Created by potrace 1.14, written by Peter Selinger 2001-2017
</metadata>
<g transform="translate(0.000000,400.000000) scale(0.100000,-0.100000)"
fill="#000000" stroke="none">
<path d="M1814 3701 c-41 -25 -61 -80 -45 -120 7 -15 200 -215 429 -444 416
-415 418 -417 459 -417 76 0 134 80 103 141 -17 33 -808 827 -842 845 -37 19
-67 18 -104 -5z"/>
<path d="M1207 2912 c-257 -257 -467 -472 -467 -477 0 -6 164 -174 365 -375
l365 -365 170 170 170 170 72 -71 c40 -39 374 -369 742 -733 369 -364 682
-669 698 -677 15 -8 47 -17 72 -20 149 -21 270 143 207 281 -13 28 -238 257
-760 774 l-742 735 155 155 c86 86 156 161 156 166 0 10 -720 735 -730 735 -3
0 -215 -210 -473 -468z"/>
<path d="M438 2325 c-31 -17 -58 -62 -58 -95 0 -12 6 -33 14 -48 22 -41 817
-830 848 -841 68 -25 141 27 141 100 0 41 -1 42 -424 465 -459 459 -455 456
-521 419z"/>
<path d="M570 658 c-51 -35 -69 -66 -100 -174 -38 -128 -38 -157 -1 -195 l29
-29 906 0 c565 0 914 4 930 10 15 5 34 25 43 44 16 34 15 39 -17 157 -22 77
-43 133 -58 151 -51 61 -7 58 -890 58 l-809 0 -33 -22z"/>
</g>
</svg>
